<!-- icon666.com - MILLIONS vector ICONS FREE --><svg version="1.1" id="Capa_1" xmlns="http://www.w3.org/2000/svg" xmlns:xlink="http://www.w3.org/1999/xlink" x="0px" y="0px" viewBox="0 0 503.687 503.687" style="enable-background:new 0 0 503.687 503.687;" xml:space="preserve"><g><path style="fill:#33363A;" d="M404.874,428.779H7.877c-3.151,0-5.908-2.757-5.908-5.908c0-3.151,2.757-5.908,5.908-5.908h396.997 c3.151,0,5.908,2.757,5.908,5.908C410.782,426.022,408.025,428.779,404.874,428.779z"></path><path style="fill:#33363A;" d="M432.049,428.779h-5.12c-3.151,0-5.908-2.757-5.908-5.908c0-3.151,2.757-5.908,5.908-5.908h5.12 c3.151,0,5.908,2.757,5.908,5.908C437.957,426.022,435.2,428.779,432.049,428.779z"></path><path style="fill:#33363A;" d="M448.591,428.779h-0.788c-3.151,0-5.908-2.757-5.908-5.908c0-3.151,2.757-5.908,5.908-5.908h0.788 c3.151,0,5.908,2.757,5.908,5.908C454.498,426.022,451.742,428.779,448.591,428.779z"></path><path style="fill:#33363A;" d="M387.938,460.287H225.28c-3.151,0-5.908-2.757-5.908-5.908c0-3.151,2.757-5.908,5.908-5.908h162.658 c3.151,0,5.908,2.757,5.908,5.908C393.846,457.53,391.089,460.287,387.938,460.287z"></path><path style="fill:#33363A;" d="M202.831,460.287h-18.905c-3.151,0-5.908-2.757-5.908-5.908c0-3.151,2.757-5.908,5.908-5.908h18.905 c3.151,0,5.908,2.757,5.908,5.908C208.738,457.53,205.982,460.287,202.831,460.287z"></path><path style="fill:#33363A;" d="M161.477,460.287h-18.905c-3.151,0-5.908-2.757-5.908-5.908c0-3.151,2.757-5.908,5.908-5.908h18.905 c3.151,0,5.908,2.757,5.908,5.908C167.385,457.53,164.628,460.287,161.477,460.287z"></path><path style="fill:#33363A;" d="M123.668,460.287h-0.788c-3.151,0-5.908-2.757-5.908-5.908c0-3.151,2.757-5.908,5.908-5.908h0.788 c3.151,0,5.908,2.757,5.908,5.908C129.575,457.53,127.212,460.287,123.668,460.287z"></path><path style="fill:#33363A;" d="M91.766,460.287h-0.788c-3.151,0-5.908-2.757-5.908-5.908c0-3.151,2.757-5.908,5.908-5.908h0.788 c3.151,0,5.908,2.757,5.908,5.908C97.674,457.53,94.917,460.287,91.766,460.287z"></path><path style="fill:#33363A;" d="M66.954,460.287H48.049c-3.151,0-5.908-2.757-5.908-5.908c0-3.151,2.757-5.908,5.908-5.908h18.905 c3.151,0,5.908,2.757,5.908,5.908C72.862,457.53,70.498,460.287,66.954,460.287z"></path></g><path style="fill:#B7CBCE;" d="M39.385,283.056c0,9.058-7.483,16.542-16.542,16.542l0,0c-9.058,0-16.542-7.483-16.542-16.542 v-22.055c0-9.058,7.483-16.542,16.542-16.542l0,0c9.058,0,16.542,7.483,16.542,16.542V283.056z"></path><path style="fill:#33363A;" d="M22.449,305.505C9.846,305.505,0,295.265,0,283.056v-22.055c0-12.603,10.24-22.449,22.449-22.449 c12.603,0,22.449,10.24,22.449,22.449v22.055C45.292,295.265,35.052,305.505,22.449,305.505z M22.449,249.973 c-5.908,0-10.634,4.726-10.634,10.634v22.055c0,5.908,4.726,10.634,10.634,10.634s10.634-4.726,10.634-10.634v-22.055 C33.477,255.093,28.357,249.973,22.449,249.973z"></path><path style="fill:#4F5356;" d="M288.295,187.351c0,10.634-8.665,19.298-19.298,19.298h-94.523c-10.634,0-19.298-8.665-19.298-19.298 v-64.591c0-10.634,8.665-19.298,19.298-19.298h94.523c10.634,0,19.298,8.665,19.298,19.298V187.351z"></path><path style="fill:#33363A;" d="M268.997,212.558h-94.523c-13.785,0-25.206-11.422-25.206-25.206v-64.591 c0-13.785,11.422-25.206,25.206-25.206h122.88c3.151,0,5.908,2.757,5.908,5.908c0,3.151-2.757,5.908-5.908,5.908h-122.88 c-7.483,0-13.391,5.908-13.391,13.391v64.591c0,7.483,5.908,13.391,13.391,13.391h94.523c3.151,0,5.908,2.757,5.908,5.908 C274.905,209.801,272.148,212.558,268.997,212.558z"></path><path style="fill:#4F5356;" d="M170.929,266.908c0,9.846-7.877,17.723-17.723,17.723H76.012c-9.846,0-17.723-7.877-17.723-17.723 v-59.077c0-9.846,7.877-17.723,17.723-17.723h77.194c9.846,0,17.723,7.877,17.723,17.723V266.908z"></path><path style="fill:#33363A;" d="M153.206,290.539H76.012c-12.997,0-23.631-10.634-23.631-23.631v-59.077 c0-12.997,10.634-23.631,23.631-23.631h77.194c12.997,0,23.631,10.634,23.631,23.631v59.077 C176.837,279.905,166.203,290.539,153.206,290.539z M76.012,196.016c-6.302,0-11.815,5.12-11.815,11.815v59.077 c0,6.302,5.12,11.815,11.815,11.815h77.194c6.302,0,11.815-5.12,11.815-11.815v-59.077c0-6.302-5.12-11.815-11.815-11.815H76.012z"></path><polygon style="fill:#7EDBE8;" points="288.295,259.819 97.28,259.819 155.175,139.696 288.295,139.696 "></polygon><polyline style="fill:#5BBBDD;" points="155.175,139.696 288.295,139.696 288.295,259.819 "></polyline><path style="fill:#33363A;" d="M288.295,265.727H97.28c-1.969,0-3.938-1.181-5.12-2.757c-1.182-1.575-1.182-3.938-0.394-5.514 l57.895-120.123c1.182-1.969,3.151-3.151,5.514-3.151h133.12c3.151,0,5.908,2.757,5.908,5.908s-2.757,5.908-5.908,5.908H158.72 l-51.988,108.308h181.563c3.151,0,5.908,2.757,5.908,5.908C294.203,263.364,291.446,265.727,288.295,265.727z"></path><path style="fill:#3F4347;" d="M288.295,212.951c-3.938-0.394-8.665-0.788-13.785-0.788H72.074 c-26.388,0-47.655,21.268-47.655,47.655v70.105c0,26.388,21.268,47.655,47.655,47.655h202.437c4.726,0,9.452-0.788,13.785-1.969 L288.295,212.951L288.295,212.951z"></path><g><path style="fill:#33363A;" d="M288.295,259.425H24.418v70.105c0,26.388,21.268,47.655,47.655,47.655h202.437 c4.726,0,9.452-0.788,13.785-1.969L288.295,259.425L288.295,259.425z"></path><path style="fill:#33363A;" d="M274.117,383.093H71.68c-29.538,0-53.563-24.025-53.563-53.563v-70.105 c0-29.538,24.025-53.563,53.563-53.563h235.126c3.151,0,5.908,2.757,5.908,5.908c0,3.151-2.757,5.908-5.908,5.908H71.68 c-22.843,0-41.748,18.511-41.748,41.748v70.105c0,22.843,18.511,41.748,41.748,41.748h202.437c3.151,0,5.908,2.757,5.908,5.908 S277.662,383.093,274.117,383.093z"></path></g><rect x="11.028" y="346.071" style="fill:#B7CBCE;" width="277.268" height="38.203"></rect><rect x="11.028" y="365.37" style="fill:#93A8AA;" width="277.268" height="19.298"></rect><path style="fill:#33363A;" d="M288.689,390.182H11.422c-3.151,0-5.908-2.757-5.908-5.908v-38.203c0-3.151,2.757-5.908,5.908-5.908 h277.268c3.151,0,5.908,2.757,5.908,5.908s-2.757,5.908-5.908,5.908H17.329v26.388h271.36c3.151,0,5.908,2.757,5.908,5.908 S291.84,390.182,288.689,390.182z"></path><circle style="fill:#D7EEF4;" cx="90.191" cy="359.856" r="50.806"></circle><g><path style="fill:#33363A;" d="M90.191,422.871c-34.658,0-62.622-27.963-62.622-62.621s27.963-62.622,62.622-62.622 s62.622,27.963,62.622,62.622S124.849,422.871,90.191,422.871z M90.191,320.865c-21.662,0-38.991,17.723-38.991,38.991 s17.723,38.991,38.991,38.991s38.991-17.723,38.991-38.991S111.852,320.865,90.191,320.865z"></path><path style="fill:#33363A;" d="M90.191,381.518c-11.815,0-21.268-9.452-21.268-21.268c0-11.815,9.452-21.268,21.268-21.268 s21.268,9.452,21.268,21.268C111.458,372.065,102.006,381.518,90.191,381.518z M90.191,350.404c-5.12,0-9.452,4.332-9.452,9.452 c0,5.12,4.332,9.452,9.452,9.452c5.12,0,9.452-4.332,9.452-9.452C99.643,354.736,95.705,350.404,90.191,350.404z"></path><path style="fill:#33363A;" d="M154.782,347.253c-3.151,0-5.908-2.757-5.908-5.908c0-32.295-25.994-58.289-58.289-58.289 s-58.289,25.994-58.289,58.289c0,3.151-2.757,5.908-5.908,5.908s-5.908-2.757-5.908-5.908c0-38.597,31.508-70.105,70.105-70.105 s70.105,31.508,70.105,70.105C160.689,344.496,157.932,347.253,154.782,347.253z"></path><path style="fill:#33363A;" d="M246.942,218.071c-3.151,0-5.908-2.757-5.908-5.908V140.09c0-3.151,2.757-5.908,5.908-5.908 c3.151,0,5.908,2.757,5.908,5.908v72.074C252.849,215.314,250.092,218.071,246.942,218.071z"></path><path style="fill:#33363A;" d="M131.938,223.585c-1.575,0-3.151-0.394-4.332-1.575c-2.363-2.363-2.363-5.908,0-8.271l26.782-26.781 c2.363-2.363,5.908-2.363,8.271,0c2.363,2.363,2.363,5.908,0,8.271l-26.782,26.781 C134.695,223.191,133.514,223.585,131.938,223.585z"></path></g><rect x="150.449" y="183.413" style="fill:#4F5356;" width="42.142" height="34.265"></rect><g><path style="fill:#33363A;" d="M192.591,223.585h-42.142c-3.151,0-5.908-2.757-5.908-5.908v-34.265 c0-3.151,2.757-5.908,5.908-5.908h42.142c3.151,0,5.908,2.757,5.908,5.908v34.265C198.498,221.222,195.742,223.585,192.591,223.585 z M156.357,211.77h30.326v-22.449h-30.326V211.77z"></path><path style="fill:#33363A;" d="M235.52,261.001h-19.692c-3.151,0-5.908-2.757-5.908-5.908s2.757-5.908,5.908-5.908h19.692 c3.151,0,5.908,2.757,5.908,5.908S238.671,261.001,235.52,261.001z"></path><path style="fill:#33363A;" d="M423.385,126.699H288.295c-3.151,0-5.908-2.757-5.908-5.908c0-3.151,2.757-5.908,5.908-5.908 h135.089c3.151,0,5.908,2.757,5.908,5.908C429.292,123.942,426.535,126.699,423.385,126.699z"></path><path style="fill:#33363A;" d="M392.665,145.604H288.295c-3.151,0-5.908-2.757-5.908-5.908c0-3.151,2.757-5.908,5.908-5.908 h104.369c3.151,0,5.908,2.757,5.908,5.908C398.572,142.847,395.815,145.604,392.665,145.604z"></path><path style="fill:#33363A;" d="M359.975,164.902h-72.074c-3.151,0-5.908-2.757-5.908-5.908c0-3.151,2.757-5.908,5.908-5.908h72.074 c3.151,0,5.908,2.757,5.908,5.908C365.883,162.145,363.52,164.902,359.975,164.902z"></path><path style="fill:#33363A;" d="M340.283,183.807h-52.382c-3.151,0-5.908-2.757-5.908-5.908c0-3.151,2.757-5.908,5.908-5.908h52.382 c3.151,0,5.908,2.757,5.908,5.908C346.191,181.05,343.434,183.807,340.283,183.807z"></path><path style="fill:#33363A;" d="M328.074,203.105h-40.172c-3.151,0-5.908-2.757-5.908-5.908c0-3.151,2.757-5.908,5.908-5.908h40.172 c3.151,0,5.908,2.757,5.908,5.908C333.982,200.348,331.618,203.105,328.074,203.105z"></path></g><g><path style="fill:#F9C441;" d="M180.775,222.01c-10.24,0-20.48,0.788-31.114,2.363l-5.514,0.788v118.942l5.514,0.788 c7.877,0.788,16.542,1.181,26.388,1.181c23.237,0,41.354-5.908,52.775-17.723c11.422-11.422,17.723-27.569,17.723-46.868 c0-18.511-5.908-33.477-17.329-44.111C218.191,227.13,202.437,222.01,180.775,222.01z M219.372,281.874 c0,25.994-13.785,40.172-40.172,40.172c-2.363,0-5.12,0-7.877,0v-75.225c2.757-0.394,5.908-0.394,10.24-0.394 c12.997,0,22.449,3.151,29.145,9.846C216.222,261.788,219.372,270.453,219.372,281.874z"></path><polygon style="fill:#F9C441;" points="279.237,222.798 252.455,222.798 252.455,345.284 326.105,345.284 326.105,320.471 279.237,320.471 "></polygon><path style="fill:#F9C441;" d="M493.095,335.831c-1.969-3.938-5.514-18.117-7.877-28.357c-1.969-8.665-5.514-15.36-9.846-20.086 c9.452-6.695,14.572-16.935,14.572-28.751c0-10.24-3.938-19.298-10.634-25.6c-8.271-7.483-19.298-10.634-35.84-10.634 c-10.24,0-20.874,0.788-28.357,2.363l-2.363,0.394l0.788-1.969h-28.751l-20.086,58.289c-1.969,5.908-4.332,12.603-6.302,19.298 c-1.969-5.908-3.938-12.209-5.908-19.298l-18.511-58.289h-28.751l39.778,122.092h24.812l40.172-111.852v111.852h26.782v-47.262 h6.695c8.665,0.394,12.997,2.757,15.754,16.148c3.938,16.935,5.908,24.418,7.877,27.963l1.969,3.151h29.145L493.095,335.831z M463.163,259.819c0,9.058-6.695,14.178-18.117,14.178h-7.877v-27.963c1.969,0,4.332-0.394,7.483-0.394 C463.163,246.034,463.163,256.274,463.163,259.819z"></path></g><g><path style="fill:#F47808;" d="M176.443,346.071c23.237,0,41.354-5.908,52.775-17.723c9.452-9.452,15.36-22.449,16.935-37.415 c-1.575-14.178-7.483-25.994-16.935-34.658c-11.028-10.24-27.175-15.36-48.837-15.36c-10.24,0-20.48,0.788-31.114,2.363 l-5.514,0.788v100.037l5.514,0.788C157.932,345.677,166.597,346.071,176.443,346.071z M171.323,321.653v-56.32v-18.905 c2.757-0.394,5.908-0.394,10.24-0.394c12.997,0,22.449,3.151,29.145,9.846c5.908,5.908,9.058,14.966,9.058,25.994 c0,3.545-0.394,6.695-0.788,9.846c0.394,2.757,0.788,5.908,0.788,9.058c0,25.994-13.785,40.172-40.172,40.172 c-2.363,0-5.12,0-7.877,0v-19.299H171.323z"></path><polygon style="fill:#F47808;" points="279.237,320.471 279.237,241.702 252.455,241.702 252.455,345.284 326.105,345.284 326.105,339.376 279.237,339.376 "></polygon><path style="fill:#F47808;" d="M443.471,297.628c8.665,0.394,12.997,2.757,15.754,16.148c3.938,16.935,5.908,24.419,7.877,27.963 l1.969,3.151h20.874c-1.575-5.908-3.151-12.997-4.726-18.905c-1.969-8.665-5.514-15.36-9.846-20.086 c2.757-1.969,5.12-4.332,7.483-7.089c-1.969-4.726-4.332-8.665-7.483-11.815c6.695-4.726,11.422-11.422,13.391-19.298 c-1.575-6.302-4.726-11.815-9.452-15.754c-8.271-7.483-19.298-10.634-35.84-10.634c-10.24,0-20.874,0.788-28.357,2.363 l-2.363,0.394l0.788-1.969h-3.545v10.24v92.948h26.782v-28.357v-18.905L443.471,297.628z M436.775,274.391v-9.058v-18.905 c1.969,0,4.332-0.394,7.483-0.394c18.905,0.394,18.905,10.24,18.905,14.178c0,3.938-1.182,6.695-3.545,9.058 c3.545,3.151,3.545,7.483,3.545,9.452c0,9.058-6.695,14.178-18.117,14.178h-7.877C436.775,292.902,436.775,274.391,436.775,274.391 z"></path><path style="fill:#F47808;" d="M364.702,300.385c-1.969,5.908-4.332,12.603-6.302,19.298c-1.969-5.908-3.938-12.209-5.908-19.298 l-18.511-58.289h-22.449l33.871,103.188h24.812l37.022-103.188h-22.055L364.702,300.385z"></path></g><g><path style="fill:#33363A;" d="M176.443,351.979c-9.846,0-18.905-0.394-27.175-1.575l-5.514-0.788 c-3.151-0.394-5.12-2.757-5.12-5.908V224.767c0-2.757,1.969-5.514,5.12-5.908l5.514-0.788c10.634-1.575,21.268-2.363,31.902-2.363 c23.237,0,40.566,5.514,52.775,16.935c12.997,11.815,19.298,27.963,19.298,48.443c0,20.874-6.695,38.597-19.298,51.2 C220.554,345.284,200.862,351.979,176.443,351.979z M150.055,338.982h0.394c7.483,0.788,16.148,1.181,25.6,1.181 c21.268,0,38.203-5.514,48.837-15.754c10.24-10.24,15.754-25.206,15.754-42.929c0-16.935-5.12-30.326-15.36-39.385 c-9.846-9.452-24.418-13.785-44.505-13.785c-9.846,0-20.086,0.788-29.932,2.363h-0.394v108.308H150.055z M179.2,327.954 c-2.363,0-5.514,0-8.271,0c-3.151,0-5.514-2.757-5.514-5.908v-75.225c0-3.151,2.363-5.514,5.12-5.908 c3.151-0.394,7.089-0.394,10.634-0.394c14.572,0,25.6,3.938,33.083,11.422c7.089,7.089,10.634,17.329,10.634,30.326 C225.28,311.413,208.738,327.954,179.2,327.954z M177.231,316.139c0.788,0,1.182,0,1.969,0c22.843,0,34.265-11.028,34.265-34.265 l0,0c0-9.846-2.363-16.935-7.089-22.055c-5.12-5.12-13.391-7.877-24.812-7.877c-1.575,0-2.757,0-4.332,0L177.231,316.139 L177.231,316.139z"></path><path style="fill:#33363A;" d="M326.105,351.191h-73.649c-3.151,0-5.908-2.757-5.908-5.908V223.191 c0-3.151,2.757-5.908,5.908-5.908h26.782c3.151,0,5.908,2.757,5.908,5.908v91.372h40.96c3.151,0,5.908,2.757,5.908,5.908v24.812 C332.012,348.434,329.255,351.191,326.105,351.191z M258.363,339.376h61.834v-12.997h-40.96c-3.151,0-5.908-2.757-5.908-5.908 v-91.766h-14.966V339.376z"></path><path style="fill:#33363A;" d="M498.215,351.191h-29.145c-1.969,0-3.938-1.181-5.12-2.757l-1.969-3.151 c-2.363-4.332-4.726-11.815-8.665-29.538c-2.363-11.422-4.726-11.422-10.24-11.815h-0.394v41.354c0,3.151-2.757,5.908-5.908,5.908 h-26.782c-3.151,0-5.908-2.757-5.908-5.908v-77.981l-28.751,79.951c-0.788,2.363-3.151,3.938-5.514,3.938h-24.812 c-2.363,0-4.726-1.575-5.514-3.938l-39.778-122.092c-0.394-1.969-0.394-3.938,0.788-5.12c1.182-1.182,2.757-2.363,4.726-2.363 h28.751c2.757,0,4.726,1.575,5.514,3.938l18.511,58.289c0,0.394,0.394,1.181,0.394,1.575c0-0.394,0.394-1.182,0.394-1.575 l20.086-58.289c0.788-2.363,3.151-3.938,5.514-3.938h28.751c1.182,0,2.363,0.394,3.545,1.182 c7.483-1.182,16.935-1.969,26.388-1.969c18.511,0,30.72,3.545,39.778,12.209c8.271,7.089,12.603,17.723,12.603,29.932 c0,11.422-4.332,22.055-12.209,29.538c3.545,4.726,5.908,11.028,7.483,18.117c1.969,8.271,5.514,23.631,7.089,26.781l0,0 l5.12,9.452c1.182,1.969,0.788,3.938,0,5.908C502.154,350.01,500.185,351.191,498.215,351.191z M472.615,339.376h15.754 l-0.394-0.788c-2.363-4.332-5.12-15.36-8.271-29.932c-1.575-7.483-4.726-13.391-8.271-17.329c-1.182-1.181-1.969-2.757-1.575-4.726 c0-1.575,1.182-3.151,2.363-4.332c7.877-5.514,12.209-14.178,12.209-24.025c0-8.665-3.151-16.148-8.665-21.268 c-7.089-6.302-16.935-9.058-31.902-9.058c-9.846,0-20.086,0.788-27.175,2.363l-1.182,0.394c0.394,0.788,0.788,1.575,0.788,2.757 v105.945h14.966v-41.354c0-3.151,2.757-5.908,5.908-5.908h6.695c12.997,0.394,18.511,5.908,21.662,20.874 C467.495,323.622,470.252,335.437,472.615,339.376L472.615,339.376z M349.342,339.376h16.148l38.597-107.914 c0.394-0.788,0.788-1.575,1.575-2.363h-16.935l-18.511,53.957c-1.969,5.908-4.332,12.603-6.302,19.298 c-0.788,2.363-3.151,4.332-5.514,3.938c-2.757,0-4.726-1.575-5.514-4.332c-1.575-5.908-3.938-12.209-5.908-19.298l-17.329-54.351 h-16.148L349.342,339.376z M444.652,280.299h-7.877c-3.151,0-5.908-2.757-5.908-5.908v-27.963c0-3.151,2.363-5.514,5.514-5.908 c2.363-0.394,5.12-0.394,7.877-0.394c11.422,0,24.812,3.545,24.812,20.086C469.071,272.028,459.618,280.299,444.652,280.299z M442.683,268.484h1.969c5.514,0,12.209-1.575,12.209-8.271c0-3.151,0-7.877-12.997-8.271c-0.394,0-1.182,0-1.575,0v16.542H442.683 z"></path><path style="fill:#33363A;" d="M107.52,91.253c-1.575,0-3.151-0.394-4.332-1.575L85.071,71.561c-2.363-2.363-2.363-5.908,0-8.271 l18.117-18.117c2.363-2.363,5.908-2.363,8.271,0c2.363,2.363,2.363,5.908,0,8.271L97.28,67.622l14.178,14.178 c2.363,2.363,2.363,5.908,0,8.271C110.277,90.465,108.702,91.253,107.52,91.253z"></path><path style="fill:#33363A;" d="M134.302,73.136H91.766c-3.151,0-5.908-2.757-5.908-5.908c0-3.151,2.757-5.908,5.908-5.908h42.535 c3.151,0,5.908,2.757,5.908,5.908C140.209,70.379,137.452,73.136,134.302,73.136z"></path><path style="fill:#33363A;" d="M157.932,73.136h-3.545c-3.151,0-5.908-2.757-5.908-5.908c0-3.151,2.757-5.908,5.908-5.908h3.545 c3.151,0,5.908,2.757,5.908,5.908C163.84,70.379,161.083,73.136,157.932,73.136z"></path><path style="fill:#33363A;" d="M178.806,73.136h-3.545c-3.151,0-5.908-2.757-5.908-5.908c0-3.151,2.757-5.908,5.908-5.908h3.545 c3.151,0,5.908,2.757,5.908,5.908C184.714,70.379,182.351,73.136,178.806,73.136z"></path><path style="fill:#33363A;" d="M200.074,73.136h-3.151c-3.151,0-5.908-2.757-5.908-5.908c0-3.151,2.757-5.908,5.908-5.908h3.151 c3.151,0,5.908,2.757,5.908,5.908C205.982,70.379,203.225,73.136,200.074,73.136z"></path><path style="fill:#33363A;" d="M220.948,73.136h-3.545c-3.151,0-5.908-2.757-5.908-5.908c0-3.151,2.757-5.908,5.908-5.908h3.545 c3.151,0,5.908,2.757,5.908,5.908C226.855,70.379,224.492,73.136,220.948,73.136z"></path><path style="fill:#33363A;" d="M242.215,73.136h-3.545c-3.151,0-5.908-2.757-5.908-5.908c0-3.151,2.757-5.908,5.908-5.908h3.545 c3.151,0,5.908,2.757,5.908,5.908C248.123,70.379,245.366,73.136,242.215,73.136z"></path></g></svg>