<?xml version="1.0" encoding="UTF-8"?>
<!DOCTYPE svg PUBLIC "-//W3C//DTD SVG 1.1//EN" "http://www.w3.org/Graphics/SVG/1.1/DTD/svg11.dtd">
<!-- Creator: CorelDRAW -->
<svg xmlns="http://www.w3.org/2000/svg" xml:space="preserve" width="150mm" height="25mm" version="1.1" style="shape-rendering:geometricPrecision; text-rendering:geometricPrecision; image-rendering:optimizeQuality; fill-rule:evenodd; clip-rule:evenodd"
viewBox="0 0 15000 2500"
 xmlns:xlink="http://www.w3.org/1999/xlink"
 xmlns:xodm="http://www.corel.com/coreldraw/odm/2003">
 <defs>
  <style type="text/css">
   <![CDATA[
    .fil0 {fill:#DC2025;fill-rule:nonzero}
    .fil1 {fill:#4A4A48;fill-rule:nonzero}
   ]]>
  </style>
 </defs>
 <g id="Слой_x0020_1">
  <metadata id="CorelCorpID_0Corel-Layer"/>
  <g id="_1829982485328">
   <path class="fil0" d="M1769.64 2319.39l-1162.73 0 0 -1337.53 1162.38 0c-164.4,91.34 -296.67,225.22 -367.23,391.63l-279.77 0 0 101.34 245.55 0c-14.13,55.06 -21.5,113.86 -21.5,175.17 0,56.3 5.96,110.11 17.98,161.4l-242.03 0 0 96.35 271.64 0c68.09,175.16 204.65,316.55 375.71,411.64z"/>
   <path class="fil0" d="M2978.7 1872.71c0,98.85 -32.55,185.18 -93.88,254 -26.15,30.02 -57.38,56.3 -94.09,80.07 -0.2,0 -0.74,0 -0.93,0 -72.29,30.03 -148.09,45.04 -222.23,45.04 -83.13,0 -164.07,-18.76 -235.38,-57.55 -117.06,-62.56 -187.44,-165.16 -195.5,-286.52l0.39 0c6.75,27.52 18.82,57.55 43.44,80.07l0.4 0c21.8,20.02 53.8,32.53 99.7,32.53 75.12,0 115.16,-28.77 115.16,-72.57 0,-45.04 -12.81,-78.82 -222.58,-116.36 -502.78,-91.33 -552.09,-275.26 -552.09,-439.17 0,-88.83 29.72,-170.16 89.39,-236.47 19.16,-20.02 41,-40.04 66.23,-57.56 146.96,-55.05 295.59,-52.55 417.53,6.26 111.73,55.05 188.71,152.65 211.68,269.01l-1.32 0c-6.94,-35.04 -21.8,-66.32 -54.94,-82.58 -17.49,-8.76 -40.86,-13.77 -70.58,-13.77 -62.07,0 -93.1,23.78 -93.1,60.06 0,43.79 54.54,65.06 196.97,91.34 470.07,81.33 595.73,242.73 595.73,444.17z"/>
   <path class="fil0" d="M6902.08 506.41c0,-93.84 76.48,-170.16 170.47,-170.16 93.98,0 170.43,76.32 170.43,170.16l0 1.25c-0.1,87.58 -67.21,160.15 -153.09,168.91 -5.67,0 -11.48,1.25 -17.34,1.25 -93.99,0 -170.34,-76.32 -170.47,-170.16l0 -1.25zm489.76 1.25c0,0 0,0 0,-1.25 0,-175.17 -142.86,-319.05 -319.29,-319.05 -176.29,0 -319.3,143.88 -319.3,319.05l0 3.75c0,1.25 0,1.25 0,1.25l0 3.76c0,0 0,1.25 0.15,1.25 0.2,18.77 1.95,38.79 5.23,60.06 0.58,2.5 1.07,6.25 1.56,8.75 0.93,5.01 2.05,11.27 3.18,16.27 0.15,1.25 0.29,1.25 0.49,2.5 1.12,5.01 2.34,11.26 3.66,16.27 1.37,5 2.83,11.26 4.39,17.52 1.82,6.25 3.67,12.51 5.72,18.76 4.56,15.02 9.79,30.03 15.69,46.3 1.18,2.5 2.4,6.25 3.67,8.76 2.4,6.25 5.04,12.51 7.72,20.01 1.32,2.51 2.69,6.26 4.06,8.76 4.26,10.01 8.65,20.02 13.24,30.03 1.57,2.5 3.18,6.26 4.74,10.01 6.26,12.51 13.05,26.28 20.34,38.79 14.17,27.52 30.01,53.8 47.4,82.58 0.15,0 0.15,0 0.25,0 8.55,13.76 17.6,27.52 26.98,41.29 0.2,0 0.2,0 0.25,0 9.47,13.76 19.26,28.77 29.52,42.54 10.12,13.76 20.67,27.52 31.51,42.54 0,0 0.15,0 0.15,0 5.48,7.5 10.95,13.76 16.48,21.27 0.09,0 0.19,0 0.19,0 11.25,13.76 22.82,28.78 34.8,42.54 7.48,8.76 14.96,17.51 22.63,27.52 4.74,5.01 9.58,10.01 14.41,16.27l0.89 1.25c0.05,0 0.24,0 0.29,0 0.15,0 0.15,0 0.35,0l0.88 -1.25c204.63,-232.72 320.18,-461.69 318.26,-628.1l-0.49 0z"/>
   <path class="fil1" d="M2931.29 1373.49l-525.35 0c-22.97,-116.36 -99.9,-213.96 -211.68,-269.01 -121.94,-58.81 -270.57,-60.06 -417.53,-6.26 65.88,-47.54 152.63,-82.57 260.59,-102.59l22.83 -3.76c17.25,-3.75 35.53,-6.25 53.76,-7.5 17.69,-2.51 35.73,-3.76 54.2,-5.01 17.89,-1.25 35.92,-2.5 54.6,-2.5 2.78,0 5.81,0 8.85,0 9.38,0 19.15,0 29.13,0 391.77,0 650.47,140.13 670.6,396.63z"/>
   <path class="fil1" d="M2789.8 2206.78c-99.17,63.81 -234.98,103.85 -400.77,115.11 -17.7,1.25 -35.58,2.5 -54.01,2.5 -14.31,0 -28.64,0 -43.3,0l-10.51 0c-19.01,0 -37.1,0 -54.93,-1.25 -421.15,-16.26 -614.36,-191.43 -650.48,-415.39l560.89 0c8.11,121.36 78.49,223.96 195.5,286.52 71.36,38.79 152.25,57.55 235.43,57.55 74.09,0 149.89,-15.01 222.18,-45.04z"/>
   <path class="fil1" d="M12034.75 1581.18l160.65 0c63.81,0 136.76,-23.77 136.76,-106.35 0,-70.06 -54.68,-107.6 -140.39,-107.6l-157.02 0 0 213.95zm0 294.04l0 419.15 -545.65 0 0 -1284.98 885.1 0c348.45,0 512.74,198.94 512.74,400.38 0,160.15 -87.59,301.54 -222.59,350.34 113.11,47.54 186.18,135.12 186.18,326.56l0 6.25c0,50.05 3.62,137.63 20.01,201.45l-538.38 0c-20.02,-50.05 -27.28,-107.61 -27.28,-222.72l0 -45.04c0,-123.87 -31.03,-151.39 -160.65,-151.39l-109.48 0z"/>
   <path class="fil1" d="M2910.87 1009.39c137.58,86.33 249.06,203.94 314.36,346.58l471.64 0 0 938.4 560.2 0 0 -938.4 489.34 0 0 -346.58 -1835.54 0z"/>
   <path class="fil1" d="M5368.88 1581.18l160.55 0c63.87,0 136.89,-23.77 136.89,-106.35 0,-70.06 -54.79,-107.6 -140.56,-107.6l-156.88 0 0 213.95zm0 294.04l0 419.15 -545.65 0 0 -1284.98 885.03 0c348.57,0 512.79,198.94 512.79,400.38 0,160.15 -87.58,301.54 -222.67,350.34 113.14,47.54 186.16,135.12 186.16,326.56l0 6.25c0,50.05 3.67,137.63 20.1,201.45l-538.32 0c-20.08,-50.05 -27.41,-107.61 -27.41,-222.72l0 -45.04c0,-123.87 -30.99,-151.39 -160.55,-151.39l-109.48 0z"/>
   <path class="fil1" d="M8000.19 2294.37l0 -1284.98 642.36 0c114.91,233.97 326.59,608.08 326.59,608.08 -9.1,-107.6 -10.95,-269.01 -10.95,-481.71l0 -126.37 496.37 0 0 1284.98 -613.18 0c-89.4,-181.43 -359.48,-691.91 -359.48,-691.91 14.61,127.62 16.47,211.45 16.47,506.73l0 185.18 -498.18 0z"/>
   <path class="fil1" d="M10094.23 1909c12.75,52.55 45.6,112.6 144.18,112.6 74.77,0 114.93,-28.77 114.93,-72.56 0,-45.05 -12.76,-78.83 -222.65,-116.37 -503.6,-91.33 -552.92,-275.26 -552.92,-440.42 0,-236.47 211.72,-415.39 640.56,-415.39 392.26,0 651.38,140.13 671.52,397.88l-527.37 0c-11.01,-55.05 -40.17,-97.6 -125.92,-97.6 -62.02,0 -93.07,23.78 -93.07,61.31 0,43.8 54.74,65.07 197.09,90.09 470.7,82.58 596.7,242.73 596.7,445.42 0,279.02 -259.13,452.94 -687.97,452.94 -467.15,0 -678.78,-182.68 -717.14,-417.9l562.06 0z"/>
   <path class="fil1" d="M3473.27 1776.37c0,-92.59 -75.46,-168.91 -168.53,-168.91 -93.01,0 -168.47,76.32 -168.47,168.91 0,92.59 75.46,168.91 168.47,168.91 93.07,0 168.53,-76.32 168.53,-168.91z"/>
   <path class="fil1" d="M11345.54 2157.99c0,-92.59 -75.45,-167.66 -168.54,-167.66 -92.96,0 -168.41,75.07 -168.41,167.66 0,93.83 75.45,168.91 168.41,168.91 93.09,0 168.54,-75.08 168.54,-168.91z"/>
   <path class="fil1" d="M6976.71 1765.11l95.84 -325.31 100.82 325.31 -196.66 0zm360.64 529.26l598.62 0 -482 -1284.98 -151.07 0c-62.51,76.32 -139.35,155.15 -228.73,233.97l-1.23 1.25c-0.25,0 -0.25,0 -0.54,0l-0.29 0 -1.17 -1.25c-6.75,-6.25 -13.15,-11.26 -19.56,-17.51 -10.26,-10.01 -20.47,-18.77 -30.44,-27.53 -16.33,-15.01 -31.82,-31.28 -47.02,-45.04 0,-1.25 -0.3,-1.25 -0.3,-1.25 -7.57,-6.26 -14.9,-15.02 -22.18,-21.27 0,-1.26 -0.29,-1.26 -0.29,-1.26 -14.62,-15.01 -28.94,-28.77 -42.68,-43.79 -13.73,-15.01 -26.88,-30.03 -39.68,-45.04 -0.3,0 -0.3,0 -0.3,0 -9.38,-10.01 -18.13,-21.27 -26.33,-31.28l-127.37 0 -441.44 1284.98 547.5 0 53.75 -182.68 406.2 0 56.55 182.68z"/>
   <path class="fil1" d="M14385.23 1005.67l0 844.36c0,443.65 -252.2,445.73 -678.06,445.73 -569.09,0 -722.76,-21.05 -722.76,-542.33l0 -747.76 573.29 0 0 768c0,55.06 5.54,90.44 16.39,105.64 10.99,15.38 73.96,23.15 107.25,23.15 37.76,0 88.73,-8.48 99.6,-25.28 10.97,-16.98 16.39,-56.95 16.39,-119.75l0 -751.76 587.9 0z"/>
  </g>
 </g>
</svg>
