<!-- icon666.com - MILLIONS vector ICONS FREE --><svg version="1.1" id="Capa_1" xmlns="http://www.w3.org/2000/svg" xmlns:xlink="http://www.w3.org/1999/xlink" x="0px" y="0px" viewBox="0 0 353.916 353.916" style="enable-background:new 0 0 353.916 353.916;" xml:space="preserve"><g><path style="stroke:#000000;stroke-width:0;stroke-linecap:round;stroke-linejoin:round;" d="M288.703,15.127 C288.703,6.773,281.932,0,273.578,0h-40.747v6.437c0,4.178-3.387,7.563-7.563,7.563h-96.621c-4.176,0-7.563-3.386-7.563-7.563V0 H80.338c-8.354,0-15.125,6.773-15.125,15.127V50.73h223.49V15.127z"></path><path style="stroke:#000000;stroke-width:0;stroke-linecap:round;stroke-linejoin:round;" d="M7.458,90.778v80.073 c0,5.247,4.253,9.5,9.5,9.5h19.677v-19H26.458v-61.073h10.177v-19H16.958C11.711,81.278,7.458,85.532,7.458,90.778z"></path><path style="stroke:#000000;stroke-width:0;stroke-linecap:round;stroke-linejoin:round;" d="M336.958,81.278h-19.677v19h10.177 v61.073h-10.177v19h19.677c5.247,0,9.5-4.253,9.5-9.5V90.778C346.458,85.532,342.205,81.278,336.958,81.278z"></path><path style="stroke:#000000;stroke-width:0;stroke-linecap:round;stroke-linejoin:round;" d="M300.458,60.73h-247 c-3.763,0-6.823,3.061-6.823,6.823v177.529h47.323v28.48H46.635V300c0,3.763,3.061,6.824,6.823,6.824h5.234v10v31.424 c0,3.125,2.543,5.668,5.668,5.668h36.529c3.124,0,5.666-2.543,5.666-5.668v-31.424v-10H247.36v10v31.424 c0,3.125,2.542,5.668,5.666,5.668h36.529c3.125,0,5.668-2.543,5.668-5.668v-31.424v-10h5.234c3.763,0,6.823-3.061,6.823-6.824 v-26.438h-47.323v-28.48h47.323V67.554C307.281,63.792,304.221,60.73,300.458,60.73z M199.048,279.301h-44.18l-1.309-8.843h46.797 L199.048,279.301z M202.127,261.208h-50.338l-2.057-10.75h54.451L202.127,261.208z M205.953,241.208h-57.99l-2.058-10.75h62.105 L205.953,241.208z M209.78,221.208h-65.645l-2.057-10.75h69.758L209.78,221.208z M213.606,201.208H140.31l-1.717-8.973h76.73 L213.606,201.208z M286.458,170.852h-219V85.777h219V170.852z"></path></g></svg>